<svg width="726" height="613" viewBox="0 0 726 613" fill="none" xmlns="http://www.w3.org/2000/svg">
<g clip-path="url(#clip0_112_5071)">
<path d="M591.27 295.856C591.27 304.47 590.908 312.996 590.184 321.435C589.614 328.023 588.837 334.551 587.851 341.02C586.804 347.87 585.521 354.637 584.002 361.322V361.33C583.009 365.729 581.918 370.092 580.73 374.42C577.282 387 572.995 399.335 567.896 411.34C566.787 413.952 565.643 416.546 564.462 419.122C559.995 428.877 554.994 438.379 549.481 447.583C534.018 473.429 514.717 496.771 492.24 516.808C489.807 518.973 487.341 521.102 484.841 523.196C431.77 567.563 364.787 591.819 295.635 591.713C132.358 591.713 0 459.255 0 295.856C0 132.457 132.358 -0.000121841 295.635 -0.000121841C362.406 -0.105483 427.229 22.5126 479.46 64.1406C481.908 66.0821 484.325 68.0673 486.712 70.0963C498.359 79.981 509.228 90.7479 519.224 102.301H519.232C565.79 156.01 591.375 224.754 591.27 295.856Z" fill="#EFEBF3"/>
<path d="M87.2715 346.962C59.1088 330.187 37.8527 298.838 40.6123 266.157C66.3599 290.819 99.9941 305.571 135.564 307.804C149.285 308.616 164.631 308.089 174.731 317.418C181.016 323.223 183.941 331.963 184.421 340.508C184.901 349.054 183.19 357.553 181.488 365.941L182.074 367.996C149.301 368.119 115.434 363.736 87.2715 346.962Z" fill="#594275"/>
<path d="M41.2987 266.122C52.5828 290.81 71.3528 311.311 94.9428 324.715C100.014 327.556 105.406 329.996 111.135 331.127C116.728 332.188 122.503 331.73 127.859 329.801C132.89 328.104 137.839 325.784 143.194 325.34C148.839 324.871 154.065 327.05 158.171 330.868C163.194 335.538 166.242 341.737 169.011 347.902C172.086 354.747 175.171 361.905 181.066 366.828C181.78 367.424 180.814 368.499 180.101 367.903C169.844 359.339 168.17 344.996 159.971 334.909C156.146 330.203 150.879 326.621 144.623 326.716C139.153 326.798 134.047 329.186 128.968 330.949C123.636 332.8 118.294 333.67 112.664 332.856C106.905 332.022 101.406 329.788 96.2848 327.09C84.7164 320.883 74.1951 312.896 65.1061 303.419C54.673 292.661 46.1557 280.196 39.9228 266.563C39.5374 265.719 40.9158 265.284 41.2987 266.122Z" fill="white"/>
<path d="M87.0931 320.846C84.3087 324.502 80.3164 327.048 75.8294 328.029C71.3423 329.011 66.6526 328.365 62.5978 326.206C61.7788 325.766 62.4231 324.472 63.2431 324.912C67.0153 326.93 71.3838 327.531 75.5603 326.608C79.7368 325.686 83.4461 323.299 86.0187 319.88C86.5787 319.137 87.6499 320.108 87.0931 320.846Z" fill="white"/>
<path d="M125.422 330.998C124.25 321.675 119.61 313.137 112.427 307.086C111.715 306.487 112.682 305.413 113.393 306.011C120.856 312.322 125.666 321.217 126.865 330.921C126.978 331.846 125.535 331.918 125.422 330.998Z" fill="white"/>
<path d="M56.4648 291.982C57.8367 290.793 58.8918 289.281 59.5354 287.582C60.179 285.883 60.3909 284.051 60.1522 282.25C60.0269 281.327 61.4701 281.256 61.5946 282.173C61.8491 284.164 61.6126 286.187 60.9056 288.066C60.1987 289.944 59.0429 291.62 57.5392 292.949C57.4079 293.086 57.2294 293.168 57.04 293.178C56.8505 293.188 56.6644 293.125 56.5193 293.003C56.3776 292.875 56.2925 292.695 56.2823 292.504C56.2721 292.313 56.3377 292.125 56.4648 291.982Z" fill="white"/>
<path d="M131.772 202.843C131.867 203.417 131.961 203.991 132.067 204.571C133.378 212.284 135.313 219.877 137.854 227.277C138.041 227.852 138.24 228.432 138.443 229.001C144.753 246.762 154.303 263.196 166.608 277.469C171.51 283.144 176.836 288.437 182.54 293.303C190.418 300.023 199.494 306.682 204.545 315.358C205.082 316.258 205.563 317.189 205.985 318.148L184.533 367.122C184.428 367.209 184.334 367.301 184.229 367.388L183.462 369.383C183.151 369.152 182.832 368.907 182.521 368.676C182.339 368.543 182.163 368.4 181.981 368.267C181.862 368.175 181.743 368.082 181.63 368.006C181.59 367.975 181.55 367.944 181.521 367.919C181.408 367.842 181.311 367.759 181.21 367.688C179.426 366.32 177.65 364.937 175.88 363.538C175.868 363.534 175.868 363.533 175.862 363.518C162.401 352.83 149.714 340.924 139.235 327.469C138.92 327.064 138.594 326.654 138.288 326.227C133.599 320.136 129.415 313.672 125.778 306.898C123.798 303.183 122.007 299.37 120.413 295.473C116.313 285.398 113.822 274.739 113.031 263.889C111.458 242.258 116.815 220.365 130.699 204.077C131.054 203.66 131.405 203.254 131.772 202.843Z" fill="#594275"/>
<path d="M132.346 203.225C126.503 229.736 129.156 257.414 139.927 282.33C142.267 287.653 145.104 292.85 148.998 297.206C152.826 301.423 157.712 304.536 163.149 306.224C168.187 307.899 173.535 309.029 178.078 311.901C182.867 314.928 185.728 319.817 186.71 325.339C187.911 332.095 186.615 338.879 185.117 345.471C183.454 352.789 181.611 360.363 183.356 367.846C183.568 368.752 182.149 369.028 181.938 368.123C178.901 355.105 186.194 342.644 185.716 329.65C185.493 323.587 183.443 317.555 178.391 313.861C173.973 310.631 168.46 309.461 163.344 307.809C157.973 306.074 153.184 303.549 149.179 299.507C145.082 295.372 142.036 290.275 139.57 285.034C134.067 273.109 130.472 260.392 128.916 247.349C127.059 232.473 127.757 217.388 130.982 202.748C131.182 201.842 132.545 202.325 132.346 203.225Z" fill="white"/>
<path d="M135.986 274.511C131.563 275.752 126.844 275.38 122.671 273.46C118.497 271.541 115.142 268.199 113.203 264.032C112.814 263.187 114.107 262.542 114.497 263.388C116.295 267.271 119.421 270.384 123.311 272.164C127.2 273.943 131.598 274.273 135.709 273.093C136.603 272.837 136.874 274.257 135.986 274.511Z" fill="white"/>
<path d="M160.482 305.711C165.155 297.561 166.587 287.948 164.492 278.789C164.284 277.882 165.702 277.606 165.91 278.512C168.072 288.048 166.561 298.049 161.68 306.519C161.214 307.326 160.018 306.514 160.482 305.711Z" fill="white"/>
<path d="M128.896 233.01C130.707 232.887 132.459 232.316 133.995 231.347C135.531 230.378 136.802 229.043 137.695 227.462C138.15 226.649 139.346 227.462 138.893 228.269C137.899 230.012 136.493 231.485 134.798 232.559C133.104 233.633 131.172 234.275 129.172 234.429C128.985 234.46 128.793 234.418 128.636 234.311C128.479 234.205 128.368 234.043 128.325 233.858C128.29 233.67 128.329 233.476 128.436 233.317C128.543 233.158 128.708 233.048 128.896 233.01Z" fill="white"/>
<path d="M204.788 68.5707L240.972 492.471L168.604 497.917V73.9639C177.227 68.2535 189.606 67.3601 204.788 68.5707Z" fill="#F2E8CF"/>
<path d="M383.401 68.5707L347.217 492.471L419.586 497.917V73.9639C410.962 68.2535 398.584 67.3601 383.401 68.5707Z" fill="#F2E8CF"/>
<path d="M408.749 515.437H178.669C174.98 515.433 171.443 513.964 168.834 511.353C166.225 508.743 164.758 505.203 164.754 501.511V80.1851C164.758 76.493 166.226 72.9534 168.834 70.3427C171.443 67.732 174.98 66.2635 178.669 66.2593H408.749C412.438 66.2635 415.975 67.732 418.584 70.3427C421.193 72.9534 422.66 76.493 422.665 80.1851V501.511C422.66 505.203 421.193 508.743 418.584 511.353C415.976 513.964 412.438 515.433 408.749 515.437ZM178.669 70.882C176.205 70.8847 173.842 71.8658 172.099 73.6099C170.356 75.3539 169.376 77.7186 169.373 80.1851V501.511C169.376 503.977 170.356 506.342 172.099 508.086C173.842 509.83 176.205 510.811 178.669 510.814H408.749C411.214 510.811 413.577 509.83 415.319 508.086C417.062 506.342 418.043 503.977 418.045 501.511V80.1851C418.042 77.7186 417.062 75.3539 415.319 73.6099C413.577 71.8658 411.214 70.8848 408.749 70.882L178.669 70.882Z" fill="#CCCCCC"/>
<path d="M420.356 136.371H167.064V140.994H420.356V136.371Z" fill="#CCCCCC"/>
<path d="M420.356 213.417H167.064V218.04H420.356V213.417Z" fill="#F2E8CF"/>
<path d="M249.26 68.5708H244.641V278.906H249.26V68.5708Z" fill="#CCCCCC"/>
<path d="M342.779 68.5708H338.16V278.906H342.779V68.5708Z" fill="#CCCCCC"/>
<path d="M449.226 528.15H145.892C140.379 528.15 135.092 525.958 131.194 522.057C127.295 518.156 125.105 512.864 125.105 507.347C125.105 501.83 127.295 496.539 131.194 492.638C135.092 488.737 140.379 486.545 145.892 486.545H449.226C454.739 486.545 460.026 488.737 463.924 492.638C467.823 496.539 470.013 501.83 470.013 507.347C470.013 512.864 467.823 518.156 463.924 522.057C460.026 525.958 454.739 528.15 449.226 528.15Z" fill="#CCCCCC"/>
<path d="M420.355 268.12H168.604V283.529H420.355V268.12Z" fill="#F2E8CF"/>
<path d="M249.976 317.16L249.657 317.006C232.495 308.709 210.021 308.717 176.785 317.033L176.43 317.122L176.324 316.771C172.808 305.234 168.825 292.167 176.307 285.738C176.412 266.873 192.948 251.555 213.258 251.555C233.564 251.555 250.098 266.865 250.209 285.725C261.339 294.242 256.035 306.827 250.156 316.854L249.976 317.16Z" fill="#2F2E41"/>
<path d="M355.459 276.764C355.152 278.293 354.513 279.736 353.588 280.99C352.663 282.245 351.474 283.282 350.105 284.027C348.737 284.773 347.221 285.209 345.666 285.304C344.111 285.4 342.553 285.154 341.104 284.582L280.454 345.575L275.043 326.637L335.279 269.996C336.4 267.623 338.352 265.743 340.765 264.713C343.179 263.684 345.886 263.576 348.373 264.41C350.861 265.245 352.956 266.963 354.262 269.24C355.568 271.517 355.994 274.194 355.459 276.764Z" fill="#FFB6B6"/>
<path d="M205.566 335.483C205.566 335.483 200.063 347.962 213.641 355.657C227.218 363.353 274.671 352.721 282.371 351.236C290.071 349.752 318.829 306.683 318.829 306.683L314.762 285.561L276.622 318.694L205.566 335.483Z" fill="#6C63FF"/>
<path d="M195.551 404.491L196.321 419.13C196.321 419.13 194.048 432.097 195.917 434.895C197.772 437.68 248.385 438.031 248.385 438.031C248.385 438.031 251.729 419.99 254.61 404.198L195.551 404.491Z" fill="#FFB6B6"/>
<path d="M341.07 598.047L351.651 595.908L348.622 553.137L333.006 556.293L341.07 598.047Z" fill="#FFB6B6"/>
<path d="M356.226 542.386L366.062 537.96L353.302 497.036L338.783 503.57L356.226 542.386Z" fill="#FFB6B6"/>
<path d="M364.794 519.328L346.272 529.823L300.594 456.366C268.527 477.986 237.17 488.34 205.559 493.864C194.871 495.769 183.975 494.804 181.923 483.918C181.827 483.409 181.751 482.897 181.694 482.383C180.431 470.492 195.211 455.251 197.09 440.703L237.54 438.273L242.528 444.673L289.307 415.891C298.715 410.103 311.088 413.234 316.943 422.884C317.253 423.393 317.54 423.916 317.804 424.45L364.794 519.328Z" fill="#2F2E41"/>
<path d="M353.457 568.743L332.264 570.714L293.836 492.065C255.731 498.623 219.781 500.724 188.687 492.79C178.159 490.141 171.724 479.263 174.313 468.492C174.434 467.989 174.574 467.49 174.733 466.998C178.454 455.635 188.196 447.595 195.871 435.098L251.931 435.95L245.669 457.571L300.128 450.518C311.08 449.1 321.082 457.033 322.468 468.237C322.542 468.829 322.589 469.423 322.612 470.019L353.457 568.743Z" fill="#2F2E41"/>
<path d="M217.439 305.978C230.012 305.978 240.203 295.779 240.203 283.197C240.203 270.616 230.012 260.417 217.439 260.417C204.867 260.417 194.676 270.616 194.676 283.197C194.676 295.779 204.867 305.978 217.439 305.978Z" fill="#FFB6B6"/>
<path d="M204.095 314.202L224.968 316.66C225.848 316.763 226.674 317.139 227.33 317.735C227.987 318.33 228.442 319.116 228.631 319.983L231.95 335.183L252.642 359.569C252.642 359.569 260.072 373.511 257.286 389.312C254.5 405.113 253.275 416.854 253.275 416.854C253.275 416.854 197.77 437.681 195.912 434.892C194.055 432.104 193.452 419.438 193.452 419.438L186.021 336.715C186.021 336.715 194.381 322.773 199.024 322.773C202.022 322.671 201.637 315.921 204.095 314.202Z" fill="#6C63FF"/>
<path d="M253.839 421.94C256.766 421.94 259.138 419.091 259.138 415.576C259.138 412.061 256.766 409.211 253.839 409.211C250.912 409.211 248.539 412.061 248.539 415.576C248.539 419.091 250.912 421.94 253.839 421.94Z" fill="#6C63FF"/>
<path d="M335.818 587.034L351.95 578.943L354.991 586.042L375.39 590.168C376.397 590.372 377.313 590.893 378.004 591.654C378.695 592.416 379.125 593.379 379.23 594.402C379.336 595.425 379.112 596.455 378.591 597.342C378.07 598.229 377.279 598.926 376.334 599.331L356.624 607.786L350.22 602.222L351.901 609.812L344.469 613L335.818 587.034Z" fill="#2F2E41"/>
<path d="M351.609 538.981L367.596 530.608L370.761 537.652L391.23 541.419C392.241 541.605 393.166 542.109 393.87 542.858C394.574 543.608 395.021 544.563 395.144 545.584C395.267 546.605 395.061 547.639 394.556 548.535C394.051 549.431 393.273 550.141 392.335 550.563L372.777 559.364L366.275 553.913L368.089 561.473L360.715 564.791L351.609 538.981Z" fill="#2F2E41"/>
<path d="M204.434 276.052C198.42 276.062 192.551 274.209 187.631 270.747L187.467 270.632V270.431C187.473 264.61 189.787 259.028 193.901 254.912C198.014 250.795 203.591 248.48 209.408 248.473H218.647C224.464 248.48 230.041 250.795 234.155 254.912C238.268 259.028 240.582 264.61 240.589 270.431C240.583 271.764 240.057 273.041 239.124 273.991C238.19 274.942 236.923 275.49 235.592 275.519L204.953 276.048C204.781 276.051 204.607 276.052 204.434 276.052Z" fill="#2F2E41"/>
<path d="M242.129 266.214C245.075 264.512 245.567 259.846 243.228 255.793C240.89 251.739 236.606 249.833 233.66 251.535C230.714 253.237 230.222 257.903 232.561 261.956C234.899 266.01 239.183 267.916 242.129 266.214Z" fill="#2F2E41"/>
<path d="M196.056 261.692C199.363 258.382 200.094 253.748 197.689 251.341C195.284 248.934 190.653 249.665 187.346 252.975C184.038 256.285 183.307 260.919 185.713 263.326C188.118 265.733 192.749 265.001 196.056 261.692Z" fill="#2F2E41"/>
<path d="M397.519 469.98H374.798C374.285 469.979 373.779 470.09 373.314 470.305C372.848 470.52 372.436 470.835 372.105 471.226C371.267 471.072 370.404 471.119 369.587 471.363C368.771 471.607 368.024 472.042 367.408 472.631C366.792 473.22 366.324 473.947 366.043 474.752C365.763 475.557 365.676 476.417 365.792 477.262C365.908 478.107 366.222 478.912 366.709 479.612C367.196 480.312 367.842 480.886 368.594 481.287C369.346 481.689 370.182 481.906 371.034 481.921C371.886 481.937 372.729 481.75 373.495 481.375L375.379 487.504C375.602 488.23 376.052 488.866 376.663 489.317C377.274 489.768 378.013 490.012 378.773 490.012H393.545C394.304 490.012 395.044 489.768 395.654 489.317C396.265 488.866 396.715 488.23 396.938 487.504L400.913 474.578C401.076 474.046 401.113 473.484 401.019 472.936C400.926 472.388 400.705 471.869 400.375 471.422C400.045 470.975 399.615 470.612 399.119 470.361C398.623 470.111 398.075 469.98 397.519 469.98ZM371.146 480.381C370.125 480.381 369.146 479.975 368.424 479.253C367.702 478.53 367.297 477.551 367.297 476.529C367.297 475.507 367.702 474.527 368.424 473.805C369.146 473.082 370.125 472.677 371.146 472.677C371.216 472.677 371.282 472.694 371.351 472.697C371.198 473.317 371.217 473.968 371.405 474.578L373.031 479.867C372.458 480.2 371.808 480.377 371.146 480.381Z" fill="#3F3D56"/>
<path d="M296.061 453.255C294.509 453.399 292.945 453.2 291.478 452.674C290.012 452.147 288.678 451.305 287.572 450.206C286.466 449.108 285.614 447.781 285.076 446.317C284.538 444.854 284.327 443.29 284.458 441.736L208.672 401.093L225.248 390.472L296.749 431.967C299.343 432.361 301.702 433.693 303.38 435.711C305.058 437.729 305.938 440.293 305.853 442.917C305.768 445.542 304.725 448.043 302.92 449.949C301.115 451.854 298.674 453.031 296.061 453.255Z" fill="#FFB6B6"/>
<path d="M196.846 326.402C196.846 326.402 183.322 324.708 179.851 339.932C176.38 355.156 200.172 397.598 203.803 404.553C207.433 411.509 256.911 426.722 256.911 426.722L275.964 416.763L233.304 389.706L196.846 326.402Z" fill="#6C63FF"/>
<path d="M292.17 263.497H296.789C299.035 263.497 301.189 264.39 302.777 265.979C304.366 267.569 305.258 269.724 305.258 271.972H283.701C283.701 269.724 284.593 267.569 286.182 265.979C287.77 264.39 289.924 263.497 292.17 263.497Z" fill="#CCCCCC"/>
<path d="M145.693 105.372C170.967 105.372 191.456 84.8682 191.456 59.5749C191.456 34.2816 170.967 13.7773 145.693 13.7773C120.419 13.7773 99.9297 34.2816 99.9297 59.5749C99.9297 84.8682 120.419 105.372 145.693 105.372Z" fill="#FFB6C1"/>
<path d="M285.811 57.1879C273.699 44.4734 259.634 32.8745 242.982 26.7452C238.344 25.0306 233.535 23.8211 228.637 23.1377C228.598 23.1323 228.561 23.1402 228.522 23.1371C228.442 23.1165 228.361 23.1006 228.28 23.0895C221.43 22.2163 214.478 22.6363 207.784 24.3278C204.51 25.15 201.316 26.2634 198.24 27.6548C195.154 29.1617 192.163 30.8578 189.286 32.7335C183.195 36.3822 176.489 38.8859 169.498 40.1211C165.989 40.7533 162.435 41.1024 158.87 41.1649C155.777 41.227 152.86 41.3346 149.929 42.4529C146.799 43.631 143.986 45.525 141.717 47.9838C139.448 50.4427 137.785 53.3982 136.86 56.6147C136.788 56.9011 136.81 57.2028 136.921 57.4763C137.032 57.7497 137.227 57.9807 137.478 58.1359C138.271 58.7041 139.044 59.3487 139.877 59.855C140.618 60.1944 141.409 60.4104 142.22 60.4944C143.544 60.7741 144.87 61.0455 146.197 61.3088C151.088 62.2786 155.999 63.1371 160.931 63.8842C170.91 65.3959 180.942 66.4608 191.029 67.0788C211.235 68.3037 231.511 67.6939 251.607 65.2568C262.901 63.8878 274.119 61.9462 285.217 59.4393C285.441 59.3736 285.645 59.2508 285.809 59.083C285.972 58.9152 286.089 58.708 286.149 58.4815C286.209 58.255 286.209 58.0168 286.15 57.7902C286.09 57.5636 285.974 57.3561 285.811 57.1879Z" fill="#E6E6E6"/>
<path d="M147.865 87.8087C143.227 86.0941 138.417 84.8846 133.52 84.2011C133.481 84.1957 133.444 84.2037 133.404 84.2005C133.325 84.18 133.244 84.1641 133.162 84.153C126.313 83.2798 119.361 83.6998 112.666 85.3913C109.393 86.2135 106.199 87.3269 103.123 88.7183C100.037 90.2252 97.0462 91.9213 94.1686 93.7969C88.0776 97.4457 81.3713 99.9494 74.3806 101.185C70.8716 101.817 67.3176 102.166 63.7527 102.228C60.6595 102.291 57.7425 102.398 54.8118 103.516C51.6813 104.694 48.8693 106.588 46.6001 109.047C44.331 111.506 42.6675 114.462 41.7424 117.678C41.6711 117.965 41.6926 118.266 41.8038 118.54C41.915 118.813 42.1101 119.044 42.361 119.199C43.1538 119.767 43.9266 120.412 44.7595 120.918C45.5005 121.258 46.2918 121.474 47.1024 121.558C48.4266 121.837 49.7525 122.109 51.0801 122.372C55.971 123.342 60.8822 124.2 65.8137 124.948C75.7925 126.459 85.8252 127.524 95.9118 128.142C116.118 129.367 136.394 128.757 156.49 126.32C167.784 124.951 179.002 123.01 190.099 120.503C190.324 120.437 190.528 120.314 190.691 120.146C190.855 119.979 190.972 119.771 191.032 119.545C191.091 119.318 191.092 119.08 191.032 118.854C190.973 118.627 190.856 118.42 190.693 118.251C178.582 105.537 164.516 93.938 147.865 87.8087Z" fill="#E6E6E6"/>
<path d="M475.917 349.303C475.625 348.618 475.294 347.947 474.955 347.277C473.199 343.874 470.938 340.757 468.249 338.031C467.849 337.623 467.433 337.215 467.002 336.83C462.365 332.555 456.726 329.519 450.606 328.003C444.486 326.487 438.082 326.539 431.988 328.154L431.957 328.17L431.726 328.231L431.78 328.493C432.011 329.714 432.346 330.912 432.781 332.076C432.896 332.392 433.027 332.692 433.158 332.993C433.212 333.131 433.281 333.255 433.343 333.393C433.343 333.393 433.335 333.401 433.351 333.401C433.351 333.409 433.358 333.416 433.358 333.424C433.505 333.709 433.643 334.002 433.797 334.279C433.481 333.979 433.181 333.671 432.889 333.355C432.604 333.062 432.342 332.754 432.08 332.446C431.183 331.398 430.372 330.28 429.655 329.102L429.532 328.894L429.316 328.979C426.411 329.986 423.64 331.344 421.063 333.024L420.786 333.208C418.819 334.501 416.602 335.365 414.28 335.745C411.957 336.124 409.581 336.011 407.305 335.412C403.718 334.486 399.977 334.317 396.32 334.915C392.663 335.513 389.171 336.866 386.064 338.887C384.007 340.229 382.146 341.853 380.537 343.71C380.398 343.872 380.259 344.041 380.121 344.203C379.828 344.557 379.551 344.919 379.282 345.289C376.388 349.16 374.611 353.752 374.147 358.564L374.131 358.741L374.278 358.842C376.882 360.628 379.829 361.856 382.931 362.447C380.982 362.72 379.009 362.769 377.049 362.594H377.041C376.152 362.52 375.268 362.397 374.393 362.224L374.231 362.193H374.224L374.023 362.155L374.054 362.524C374.284 367.232 375.764 371.793 378.342 375.738L378.419 375.846C378.448 375.885 378.474 375.926 378.496 375.969C379.589 377.641 380.497 379.426 381.206 381.293C383.006 385.932 383.403 390.999 382.346 395.862C381.15 401.064 381.548 406.505 383.487 411.477C385.426 416.449 388.816 420.722 393.217 423.737C397.082 426.399 401.587 427.981 406.266 428.322C406.905 428.376 407.552 428.406 408.199 428.406C411.901 428.418 415.564 427.654 418.954 426.164L419.077 426.118L419.108 425.979C419.759 423.874 420.675 421.86 421.833 419.985C421.454 421.463 421.263 422.982 421.263 424.508V425.016L421.702 424.762C422.079 424.539 422.464 424.3 422.811 424.076C424.891 422.717 426.774 421.079 428.408 419.207C429.047 418.467 429.694 417.751 430.371 417.034L430.379 417.027C431.695 415.624 433.089 414.253 434.536 412.943C437.616 410.176 440.911 407.658 444.391 405.416C447.868 403.181 451.504 401.204 455.269 399.499H455.277C455.7 399.298 456.131 399.106 456.555 398.921C458.43 398.104 460.235 397.135 461.952 396.024C462.013 395.985 462.067 395.955 462.121 395.916C469.564 391.039 475.035 383.678 477.561 375.142C480.088 366.606 479.505 357.45 475.917 349.303Z" fill="#594275"/>
<path opacity="0.15" d="M383.615 406.801C383.404 407.738 383.245 408.686 383.138 409.64C381.704 405.107 381.497 400.275 382.536 395.635C382.696 394.925 382.816 394.207 382.91 393.485C384.333 397.781 384.576 402.38 383.615 406.801Z" fill="black"/>
<path opacity="0.15" d="M384.197 373.38C381.916 373.697 379.604 373.708 377.32 373.413C376.722 372.285 376.206 371.114 375.775 369.912C378.318 371.629 381.183 372.809 384.197 373.38Z" fill="black"/>
<path opacity="0.15" d="M377.139 362.346C376.297 364.5 375.738 366.755 375.475 369.053C374.772 366.864 374.358 364.593 374.241 362.297L374.223 361.927L374.586 361.998C375.431 362.157 376.283 362.273 377.139 362.346Z" fill="black"/>
<path opacity="0.15" d="M386.264 338.658C389.367 336.634 392.857 335.279 396.512 334.68C400.167 334.081 403.907 334.251 407.493 335.179C409.769 335.781 412.147 335.896 414.471 335.517C416.795 335.138 419.013 334.273 420.981 332.978L421.259 332.795C423.833 331.112 426.603 329.75 429.507 328.741L429.729 328.664L429.85 328.865C430.999 330.765 432.39 332.506 433.989 334.046C433.018 332.235 432.338 330.282 431.974 328.26L431.921 327.993L432.184 327.923C437.9 326.409 443.893 326.269 449.674 327.514C455.454 328.759 460.859 331.355 465.446 335.088C470.034 338.821 473.674 343.587 476.071 348.997C478.467 354.406 479.552 360.306 479.236 366.215C478.024 361.398 475.868 356.869 472.894 352.892C469.92 348.914 466.187 345.567 461.91 343.044C457.634 340.521 452.9 338.872 447.983 338.193C443.065 337.514 438.062 337.819 433.263 339.089L433 339.159L433.053 339.426C433.417 341.448 434.097 343.401 435.068 345.212C433.469 343.673 432.078 341.931 430.929 340.031L430.808 339.83L430.586 339.907C427.682 340.916 424.912 342.278 422.338 343.961L422.06 344.145C420.092 345.439 417.874 346.304 415.55 346.683C413.226 347.062 410.848 346.947 408.572 346.345C402.612 344.797 396.3 345.366 390.712 347.955C385.124 350.544 380.607 354.992 377.93 360.541C376.739 359.968 375.584 359.322 374.471 358.607L374.32 358.512L374.338 358.334C374.721 354.368 375.992 350.54 378.057 347.134C380.122 343.727 382.927 340.83 386.264 338.658Z" fill="black"/>
</g>
<defs>
<clipPath id="clip0_112_5071">
<rect width="726" height="613" fill="white"/>
</clipPath>
</defs>
</svg>
